<svg width="40" height="40" viewBox="0 0 40 40" fill="none" xmlns="http://www.w3.org/2000/svg">
<path d="M13.1626 26.9084H16.465C16.6286 27.6301 17.0327 28.2748 17.611 28.7366C18.1892 29.1985 18.9073 29.45 19.6474 29.45C20.3874 29.45 21.1055 29.1985 21.6837 28.7366C22.262 28.2748 22.6661 27.6301 22.8298 26.9084H26.1346C26.6303 26.9075 27.1106 26.7365 27.4953 26.4239C27.88 26.1113 28.1458 25.6761 28.2481 25.1911C28.3504 24.7061 28.2832 24.2007 28.0575 23.7593C27.8319 23.318 27.4616 22.9674 27.0085 22.7664L26.0807 22.3576V18.7859C26.0778 17.5312 25.7193 16.303 25.0469 15.2436C24.3744 14.1843 23.4156 13.3372 22.2814 12.8005V12.6341C22.2814 11.9355 22.0039 11.2655 21.5099 10.7715C21.0159 10.2775 20.346 10 19.6474 10C18.9488 10 18.2788 10.2775 17.7848 10.7715C17.2908 11.2655 17.0133 11.9355 17.0133 12.6341V12.776C15.882 13.2861 14.9218 14.1117 14.2479 15.1538C13.574 16.1959 13.215 17.4103 13.214 18.6513V22.3576L12.2862 22.7664C11.8331 22.9674 11.4628 23.318 11.2372 23.7593C11.0116 24.2007 10.9443 24.7061 11.0466 25.1911C11.149 25.6761 11.4147 26.1113 11.7994 26.4239C12.1841 26.7365 12.6645 26.9075 13.1601 26.9084H13.1626ZM19.6474 27.9733C19.3007 27.973 18.9614 27.8726 18.6705 27.6841C18.3795 27.4957 18.1492 27.2271 18.0072 26.9109H21.2875C21.1456 27.2271 20.9152 27.4957 20.6243 27.6841C20.3333 27.8726 19.994 27.973 19.6474 27.9733ZM19.6474 11.4713C19.9002 11.4719 20.146 11.5549 20.3474 11.7077C20.5489 11.8606 20.695 12.0749 20.7637 12.3183C20.4726 12.2652 20.178 12.2333 19.8824 12.2228C19.4308 12.206 18.9788 12.2364 18.5335 12.3134C18.6025 12.0709 18.7485 11.8574 18.9494 11.705C19.1503 11.5527 19.3952 11.4698 19.6474 11.4688V11.4713ZM12.8811 24.1103L14.2446 23.5081C14.3748 23.4508 14.4854 23.3568 14.5632 23.2378C14.641 23.1187 14.6826 22.9796 14.6828 22.8374V18.6488C14.6828 17.3321 15.2059 16.0694 16.1369 15.1383C17.0679 14.2073 18.3307 13.6843 19.6474 13.6843H19.831C22.4675 13.7773 24.6119 16.0637 24.6119 18.781V22.8349C24.6122 22.9771 24.6537 23.1162 24.7315 23.2353C24.8093 23.3544 24.92 23.4483 25.0501 23.5057L26.4137 24.1079C26.5584 24.173 26.6766 24.2857 26.7484 24.4272C26.8202 24.5688 26.8415 24.7307 26.8086 24.886C26.7757 25.0413 26.6907 25.1806 26.5676 25.2809C26.4445 25.3812 26.2909 25.4363 26.1321 25.4371H13.1577C12.999 25.4363 12.8453 25.3812 12.7222 25.2809C12.5992 25.1806 12.5141 25.0413 12.4812 24.886C12.4483 24.7307 12.4696 24.5688 12.5414 24.4272C12.6133 24.2857 12.7314 24.173 12.8762 24.1079L12.8811 24.1103Z" fill="white"/>
</svg>
