<svg width="22" height="22" viewBox="0 0 22 22" fill="none" xmlns="http://www.w3.org/2000/svg">
<path d="M21.2816 16.589C21.1902 16.2121 21.0168 15.86 20.774 15.5576C20.5311 15.2553 20.2246 15.0101 19.8762 14.8396C19.4579 14.5937 18.8194 14.1822 18.202 13.785C17.6166 13.4095 17.0673 13.0546 16.716 12.8475C15.6155 12.1995 13.5752 13.2005 12.8291 13.6098C12.3522 13.504 10.8928 12.4918 9.84947 11.4484C8.80613 10.4051 7.79567 8.94612 7.68804 8.46881C8.09826 7.72312 9.09792 5.68238 8.4504 4.5823C8.24281 4.22837 7.88527 3.67316 7.50477 3.08597C7.10941 2.47221 6.70054 1.8373 6.45558 1.41987C6.28512 1.07271 6.04049 0.767221 5.73897 0.524999C5.43746 0.282778 5.08643 0.109735 4.71068 0.0181004C4.37195 -0.0248303 4.0279 0.00883952 3.70392 0.116625C3.37994 0.224411 3.0843 0.403561 2.8388 0.64086C1.87201 1.45545 -0.392082 3.362 0.0586654 5.414C0.557594 7.6889 3.15986 12.2662 6.09534 15.2043C9.03083 18.1425 13.6112 20.743 15.8852 21.241C16.0636 21.2803 16.2457 21.3 16.4283 21.3C18.2691 21.3 19.9177 19.3421 20.6611 18.4631C20.8987 18.2174 21.0779 17.9214 21.1853 17.5969C21.2927 17.2724 21.3256 16.9279 21.2816 16.589ZM19.6259 17.5914C19.0828 18.2353 17.4343 20.195 16.1743 19.9221C14.3286 19.5159 9.96429 17.1627 7.05222 14.2475C4.14016 11.3322 1.78375 6.97157 1.37849 5.12491C1.1029 3.86858 3.06485 2.21645 3.70967 1.67339C3.89527 1.48753 4.13885 1.37075 4.39998 1.34242C4.42786 1.34245 4.45571 1.34456 4.48328 1.34873C4.66189 1.41537 4.8255 1.51678 4.96463 1.6471C5.10376 1.77742 5.21565 1.93405 5.29382 2.10793C5.55274 2.54786 5.96926 3.19404 6.37183 3.81905C6.74242 4.39453 7.0923 4.93849 7.28638 5.269C7.42417 5.50226 7.16885 6.64601 6.45648 7.90639C5.7198 9.20955 8.7629 12.2743 8.89304 12.4053C9.02317 12.5363 12.0901 15.5776 13.392 14.8419C14.6528 14.129 15.7965 13.8737 16.0298 14.012C16.3581 14.2047 16.898 14.5523 17.4707 14.9207C18.1012 15.3259 18.7496 15.7442 19.1913 16.0041C19.3651 16.0823 19.5217 16.1942 19.6519 16.3333C19.7821 16.4725 19.8835 16.636 19.9501 16.8146C19.9543 16.9596 19.9276 17.1039 19.8718 17.2378C19.8159 17.3717 19.7323 17.4922 19.6263 17.5914H19.6259ZM12.4342 0.996594C12.4342 0.817455 12.5053 0.645653 12.632 0.518983C12.7587 0.392312 12.9305 0.32115 13.1096 0.32115C15.0879 0.323415 16.9845 1.11031 18.3833 2.50921C19.7821 3.9081 20.5689 5.80474 20.571 7.78301C20.571 7.96215 20.4999 8.13395 20.3732 8.26062C20.2465 8.38729 20.0747 8.45845 19.8956 8.45845C19.7164 8.45845 19.5446 8.38729 19.418 8.26062C19.2913 8.13395 19.2201 7.96215 19.2201 7.78301C19.2184 6.1629 18.574 4.60966 17.4285 3.46403C16.2829 2.3184 14.7297 1.67395 13.1096 1.67204C13.0209 1.67204 12.9331 1.65457 12.8511 1.62062C12.7692 1.58668 12.6947 1.53693 12.632 1.47421C12.5693 1.41148 12.5195 1.33702 12.4856 1.25508C12.4516 1.17313 12.4342 1.08529 12.4342 0.996594ZM12.4342 4.59896C12.4342 4.41982 12.5053 4.24802 12.632 4.12135C12.7587 3.99468 12.9305 3.92352 13.1096 3.92352C14.1328 3.92471 15.1137 4.33173 15.8372 5.05528C16.5607 5.77883 16.9676 6.75982 16.9687 7.78301C16.9687 7.96215 16.8975 8.13395 16.7708 8.26062C16.6442 8.38729 16.4724 8.45845 16.2932 8.45845C16.1141 8.45845 15.9423 8.38729 15.8156 8.26062C15.6889 8.13395 15.6178 7.96215 15.6178 7.78301C15.6171 7.11798 15.3526 6.48039 14.8824 6.01011C14.4122 5.53982 13.7746 5.27524 13.1096 5.27441C12.9305 5.27441 12.7587 5.20324 12.632 5.07657C12.5053 4.9499 12.4342 4.7781 12.4342 4.59896Z" fill="white"/>
</svg>
