<svg width="20" height="20" viewBox="0 0 20 20" fill="none" xmlns="http://www.w3.org/2000/svg">
<path d="M17.5 3.75V1.25C17.5 0.918479 17.3683 0.600537 17.1339 0.366117C16.8995 0.131696 16.5815 0 16.25 0H8.75C8.41848 0 8.10054 0.131696 7.86612 0.366117C7.6317 0.600537 7.5 0.918479 7.5 1.25V3.75H2.5C1.83696 3.75 1.20107 4.01339 0.732233 4.48223C0.263392 4.95107 0 5.58696 0 6.25V17.5C0 18.163 0.263392 18.7989 0.732233 19.2678C1.20107 19.7366 1.83696 20 2.5 20H17.5C18.163 20 18.7989 19.7366 19.2678 19.2678C19.7366 18.7989 20 18.163 20 17.5V6.25C20 5.58696 19.7366 4.95107 19.2678 4.48223C18.7989 4.01339 18.163 3.75 17.5 3.75ZM8.75 1.25H16.25V6.25H8.75V1.25ZM2.5 18.75C2.1686 18.7496 1.85088 18.6178 1.61654 18.3835C1.3822 18.1491 1.25038 17.8314 1.25 17.5V6.25C1.25038 5.9186 1.3822 5.60087 1.61654 5.36654C1.85088 5.1322 2.1686 5.00038 2.5 5H5V18.75H2.5ZM18.75 17.5C18.7496 17.8314 18.6178 18.1491 18.3835 18.3835C18.1491 18.6178 17.8314 18.7496 17.5 18.75H6.25V5H7.5V6.25C7.5 6.58152 7.6317 6.89946 7.86612 7.13388C8.10054 7.3683 8.41848 7.5 8.75 7.5H16.25C16.5815 7.5 16.8995 7.3683 17.1339 7.13388C17.3683 6.89946 17.5 6.58152 17.5 6.25V5C17.8314 5.00038 18.1491 5.1322 18.3835 5.36654C18.6178 5.60087 18.7496 5.9186 18.75 6.25V17.5ZM10 10.625C10 10.7486 9.96334 10.8695 9.89467 10.9722C9.82599 11.075 9.72838 11.1551 9.61418 11.2024C9.49997 11.2497 9.37431 11.2621 9.25307 11.238C9.13183 11.2139 9.02047 11.1544 8.93306 11.0669C8.84565 10.9795 8.78613 10.8682 8.76201 10.7469C8.73789 10.6257 8.75027 10.5 8.79757 10.3858C8.84488 10.2716 8.92499 10.174 9.02777 10.1053C9.13055 10.0367 9.25139 10 9.375 10C9.54076 10 9.69973 10.0658 9.81694 10.1831C9.93415 10.3003 10 10.4592 10 10.625ZM16.25 10.625C16.25 10.7486 16.2133 10.8695 16.1447 10.9722C16.076 11.075 15.9784 11.1551 15.8642 11.2024C15.75 11.2497 15.6243 11.2621 15.5031 11.238C15.3818 11.2139 15.2705 11.1544 15.1831 11.0669C15.0956 10.9795 15.0361 10.8682 15.012 10.7469C14.9879 10.6257 15.0003 10.5 15.0476 10.3858C15.0949 10.2716 15.175 10.174 15.2778 10.1053C15.3806 10.0367 15.5014 10 15.625 10C15.7908 10 15.9497 10.0658 16.0669 10.1831C16.1842 10.3003 16.25 10.4592 16.25 10.625ZM13.125 10.625C13.125 10.7486 13.0883 10.8695 13.0197 10.9722C12.951 11.075 12.8534 11.1551 12.7392 11.2024C12.625 11.2497 12.4993 11.2621 12.3781 11.238C12.2568 11.2139 12.1455 11.1544 12.0581 11.0669C11.9706 10.9795 11.9111 10.8682 11.887 10.7469C11.8629 10.6257 11.8753 10.5 11.9226 10.3858C11.9699 10.2716 12.05 10.174 12.1528 10.1053C12.2555 10.0367 12.3764 10 12.5 10C12.6658 10 12.8247 10.0658 12.9419 10.1831C13.0592 10.3003 13.125 10.4592 13.125 10.625ZM10 13.125C10 13.2486 9.96334 13.3695 9.89467 13.4722C9.82599 13.575 9.72838 13.6551 9.61418 13.7024C9.49997 13.7497 9.37431 13.7621 9.25307 13.738C9.13183 13.7139 9.02047 13.6544 8.93306 13.5669C8.84565 13.4795 8.78613 13.3682 8.76201 13.2469C8.73789 13.1257 8.75027 13 8.79757 12.8858C8.84488 12.7716 8.92499 12.674 9.02777 12.6053C9.13055 12.5367 9.25139 12.5 9.375 12.5C9.54076 12.5 9.69973 12.5658 9.81694 12.6831C9.93415 12.8003 10 12.9592 10 13.125ZM16.25 13.125C16.25 13.2486 16.2133 13.3695 16.1447 13.4722C16.076 13.575 15.9784 13.6551 15.8642 13.7024C15.75 13.7497 15.6243 13.7621 15.5031 13.738C15.3818 13.7139 15.2705 13.6544 15.1831 13.5669C15.0956 13.4795 15.0361 13.3682 15.012 13.2469C14.9879 13.1257 15.0003 13 15.0476 12.8858C15.0949 12.7716 15.175 12.674 15.2778 12.6053C15.3806 12.5367 15.5014 12.5 15.625 12.5C15.7908 12.5 15.9497 12.5658 16.0669 12.6831C16.1842 12.8003 16.25 12.9592 16.25 13.125ZM13.125 13.125C13.125 13.2486 13.0883 13.3695 13.0197 13.4722C12.951 13.575 12.8534 13.6551 12.7392 13.7024C12.625 13.7497 12.4993 13.7621 12.3781 13.738C12.2568 13.7139 12.1455 13.6544 12.0581 13.5669C11.9706 13.4795 11.9111 13.3682 11.887 13.2469C11.8629 13.1257 11.8753 13 11.9226 12.8858C11.9699 12.7716 12.05 12.674 12.1528 12.6053C12.2555 12.5367 12.3764 12.5 12.5 12.5C12.6658 12.5 12.8247 12.5658 12.9419 12.6831C13.0592 12.8003 13.125 12.9592 13.125 13.125ZM10 15.625C10 15.7486 9.96334 15.8694 9.89467 15.9722C9.82599 16.075 9.72838 16.1551 9.61418 16.2024C9.49997 16.2497 9.37431 16.2621 9.25307 16.238C9.13183 16.2139 9.02047 16.1544 8.93306 16.0669C8.84565 15.9795 8.78613 15.8682 8.76201 15.7469C8.73789 15.6257 8.75027 15.5 8.79757 15.3858C8.84488 15.2716 8.92499 15.174 9.02777 15.1053C9.13055 15.0367 9.25139 15 9.375 15C9.54076 15 9.69973 15.0658 9.81694 15.1831C9.93415 15.3003 10 15.4592 10 15.625ZM16.25 15.625C16.25 15.7486 16.2133 15.8694 16.1447 15.9722C16.076 16.075 15.9784 16.1551 15.8642 16.2024C15.75 16.2497 15.6243 16.2621 15.5031 16.238C15.3818 16.2139 15.2705 16.1544 15.1831 16.0669C15.0956 15.9795 15.0361 15.8682 15.012 15.7469C14.9879 15.6257 15.0003 15.5 15.0476 15.3858C15.0949 15.2716 15.175 15.174 15.2778 15.1053C15.3806 15.0367 15.5014 15 15.625 15C15.7908 15 15.9497 15.0658 16.0669 15.1831C16.1842 15.3003 16.25 15.4592 16.25 15.625ZM13.125 15.625C13.125 15.7486 13.0883 15.8694 13.0197 15.9722C12.951 16.075 12.8534 16.1551 12.7392 16.2024C12.625 16.2497 12.4993 16.2621 12.3781 16.238C12.2568 16.2139 12.1455 16.1544 12.0581 16.0669C11.9706 15.9795 11.9111 15.8682 11.887 15.7469C11.8629 15.6257 11.8753 15.5 11.9226 15.3858C11.9699 15.2716 12.05 15.174 12.1528 15.1053C12.2555 15.0367 12.3764 15 12.5 15C12.6658 15 12.8247 15.0658 12.9419 15.1831C13.0592 15.3003 13.125 15.4592 13.125 15.625Z" fill="white"/>
</svg>
