<svg width="40" height="40" viewBox="0 0 40 40" fill="none" xmlns="http://www.w3.org/2000/svg">
<path d="M12.1724 13C10.9814 13 10 13.9814 10 15.1724V24.8276C10 26.0186 10.9814 27 12.1724 27H28.1034C29.2944 27 30.2759 26.0186 30.2759 24.8276V15.1724C30.2759 13.9814 29.2944 13 28.1034 13H12.1724ZM12.3308 14.4483H27.9526L20.583 21.0259C20.302 21.2767 19.9896 21.277 19.708 21.0259L12.3308 14.4483ZM11.4483 15.6024L16.4116 20.0302L11.4483 24.7974V15.6024ZM28.8276 15.6024V24.7899L23.8793 20.0226L28.8276 15.6024ZM22.7931 20.9957L27.5226 25.5517H12.7532L17.4978 21.0032L18.7425 22.1121C19.5336 22.8175 20.7573 22.8186 21.5485 22.1121L22.7931 20.9957Z" fill="white"/>
</svg>
