<svg width="21" height="14" viewBox="0 0 21 14" fill="none" xmlns="http://www.w3.org/2000/svg">
<path d="M2.15036 0C0.97146 0 0 0.971483 0 2.15036V11.7075C0 12.8864 0.97146 13.8579 2.15036 13.8579H17.9196C19.0985 13.8579 20.07 12.8864 20.07 11.7075V2.15036C20.07 0.971483 19.0985 0 17.9196 0H2.15036ZM2.30714 1.43357H17.7703L10.4755 7.94437C10.1974 8.19267 9.88815 8.19293 9.60942 7.94437L2.30714 1.43357ZM1.43357 2.57593L6.34654 6.95879L1.43357 11.6776V2.57593ZM18.6364 2.57593V11.6702L13.7384 6.95134L18.6364 2.57593ZM12.6632 7.91451L17.3447 12.4243H2.72527L7.42172 7.92196L8.65371 9.01955C9.43682 9.7178 10.648 9.71892 11.4313 9.01955L12.6632 7.91451Z" fill="white"/>
</svg>
