<svg width="39" height="39" viewBox="0 0 39 39" fill="none" xmlns="http://www.w3.org/2000/svg">
<circle cx="19.5" cy="19.5" r="19.5" fill="#1DA1F2"/>
<path d="M15.9186 28.8761C24.2205 28.8761 28.7613 21.9981 28.7613 16.0334C28.7613 15.8381 28.7613 15.6436 28.7481 15.45C29.6315 14.811 30.394 14.0199 31 13.1136C30.1762 13.4786 29.3023 13.718 28.4075 13.8237C29.3498 13.2596 30.055 12.3724 30.3919 11.3272C29.5059 11.8529 28.5366 12.2235 27.5258 12.4228C26.8452 11.6991 25.9452 11.22 24.9648 11.0594C23.9845 10.8989 22.9786 11.0659 22.1028 11.5346C21.227 12.0033 20.53 12.7476 20.1198 13.6524C19.7097 14.5571 19.6091 15.5718 19.8337 16.5394C18.0391 16.4495 16.2836 15.9831 14.681 15.1707C13.0783 14.3582 11.6645 13.2178 10.5312 11.8235C9.954 12.8172 9.77722 13.9935 10.0368 15.1129C10.2965 16.2323 10.973 17.2107 11.9286 17.8489C11.2103 17.8276 10.5077 17.6338 9.88 17.2839C9.88 17.3024 9.88 17.3217 9.88 17.3411C9.88029 18.3832 10.241 19.3931 10.901 20.1996C11.5611 21.0061 12.4797 21.5594 13.5012 21.7657C12.8367 21.947 12.1395 21.9735 11.4631 21.8432C11.7515 22.7401 12.3131 23.5243 13.0692 24.0864C13.8253 24.6484 14.7381 24.9601 15.6801 24.9777C14.0818 26.2339 12.1073 26.9158 10.0745 26.9137C9.71536 26.9131 9.35658 26.8913 9 26.8486C11.0642 28.1733 13.4659 28.8759 15.9186 28.8726" fill="white"/>
</svg>
