<svg width="39" height="39" viewBox="0 0 39 39" fill="none" xmlns="http://www.w3.org/2000/svg">
<circle cx="19.5" cy="19.5" r="19.5" fill="#FF0000"/>
<path d="M28.6368 14.1925C28.4057 13.329 27.7271 12.6505 26.8636 12.4194C25.3002 12 19.0281 12 19.0281 12C19.0281 12 12.756 12 11.1925 12.4194C10.329 12.6505 9.65049 13.329 9.41935 14.1925C9 15.756 9 19.02 9 19.02C9 19.02 9 22.284 9.41935 23.8475C9.65049 24.711 10.329 25.3895 11.1925 25.6206C12.756 26.04 19.0281 26.04 19.0281 26.04C19.0281 26.04 25.3002 26.04 26.8636 25.6206C27.7271 25.3895 28.4057 24.711 28.6368 23.8475C29.0562 22.284 29.0562 19.02 29.0562 19.02C29.0562 19.02 29.0545 15.7576 28.6368 14.1925ZM17.0205 22.0297V16.0119L22.231 19.02L17.0205 22.0297Z" fill="white"/>
</svg>
